<svg width="16" height="16" viewBox="0 0 16 16" fill="none" xmlns="http://www.w3.org/2000/svg">
<path d="M7.2 11.2V13.6C7.2 14.9199 6.11992 16 4.8 16H2.4C1.08008 16 0 14.9199 0 13.6V11.2C0 9.88004 1.08008 8.79996 2.4 8.79996H4.8C6.11992 8.79996 7.2 9.88004 7.2 11.2Z" fill="black"/>
<path d="M7.2 2.4V4.8C7.2 6.11992 6.11992 7.2 4.8 7.2H2.4C1.08008 7.2 0 6.11992 0 4.8V2.4C0 1.08008 1.08008 0 2.4 0H4.8C6.11992 0 7.2 1.08008 7.2 2.4Z" fill="black"/>
<path d="M16 11.2V13.6C16 14.9199 14.9199 16 13.6 16H11.2C9.88007 16 8.79999 14.9199 8.79999 13.6V11.2C8.79999 9.88004 9.88007 8.79996 11.2 8.79996H13.6C14.9199 8.79996 16 9.88004 16 11.2Z" fill="black"/>
<path d="M16 2.4V4.8C16 6.11992 14.9199 7.2 13.6 7.2H11.2C9.88004 7.2 8.79996 6.11992 8.79996 4.8V2.4C8.79996 1.08008 9.88004 0 11.2 0H13.6C14.9199 0 16 1.08008 16 2.4Z" fill="black"/>
</svg>
