<svg width="33" height="30" viewBox="0 0 33 30" fill="none" xmlns="http://www.w3.org/2000/svg">
<path d="M32.1977 6.864C31.6193 5.85593 30.5452 5.22795 29.3884 5.21142H8.23543L7.27694 1.47661C7.07863 0.732954 6.38455 0.220657 5.62437 0.253708H2.31923C1.41031 0.253708 0.666656 0.997366 0.666656 1.90628C0.666656 2.81519 1.41031 3.55885 2.31923 3.55885H4.36842L8.92951 20.5142C9.12782 21.2579 9.8219 21.7702 10.5821 21.7371H25.4552C26.0832 21.7371 26.6451 21.3901 26.926 20.8282L32.3465 9.98736C32.8257 8.99581 32.7596 7.82249 32.1977 6.864Z" fill="#482615"/>
<path d="M9.75577 30C11.1248 30 12.2346 28.8902 12.2346 27.5212C12.2346 26.1521 11.1248 25.0423 9.75577 25.0423C8.38674 25.0423 7.27692 26.1521 7.27692 27.5212C7.27692 28.8902 8.38674 30 9.75577 30Z" fill="#482615"/>
<path d="M26.2815 30C27.6506 30 28.7604 28.8902 28.7604 27.5212C28.7604 26.1521 27.6506 25.0423 26.2815 25.0423C24.9125 25.0423 23.8027 26.1521 23.8027 27.5212C23.8027 28.8902 24.9125 30 26.2815 30Z" fill="#482615"/>
</svg>
