<svg width="16" height="16" viewBox="0 0 16 16" fill="none" xmlns="http://www.w3.org/2000/svg">
<path d="M3.99938 14.7375C4.04913 15.2351 4.49663 15.625 5.01813 15.625H10.9819C11.5034 15.625 11.9509 15.2351 12.0006 14.7375L12.1869 12.875H3.81313L3.99938 14.7375Z" fill="black"/>
<path d="M12.7564 0.9145C12.6054 0.46675 12.3947 0.375 12.125 0.375H3.875C3.60525 0.375 3.39463 0.46675 3.2435 0.914875L2.7985 2.25H13.2016L12.7564 0.9145Z" fill="black"/>
<path d="M13.7531 2.65462C13.7278 2.57862 13.6779 2.5 13.625 2.5H13.3754H13.375H13.3746H2.375C2.31775 2.5 2.27013 2.57563 2.24713 2.65263L2.12838 3.375H2.75H13.25H13.8716L13.7531 2.65462Z" fill="black"/>
<path d="M3.16313 6.375H12.8369L13.1119 3.625H2.88813L3.16313 6.375Z" fill="black"/>
<path d="M3.61313 12.625H12.3869L12.9869 6.625H3.01313L3.61313 12.625ZM8.03475 8.12725C8.77675 8.151 9.375 8.925 9.375 9.875C9.375 10.738 8.88125 11.4552 8.23463 11.5976C8.3625 11.2047 8.5215 10.4809 8.10925 9.81425C7.82663 9.306 7.804 8.75287 8.03475 8.12725ZM7.75938 8.15362C7.54888 8.80025 7.5925 9.3995 7.89363 9.94075C8.25988 10.5333 8.12113 11.1694 7.96163 11.6225C7.22125 11.5964 6.625 10.8235 6.625 9.875C6.625 9.01463 7.11575 8.299 7.75938 8.15362Z" fill="black"/>
</svg>
