<svg width="16" height="16" viewBox="0 0 16 16" fill="none" xmlns="http://www.w3.org/2000/svg">
<path d="M13.255 8.67072C12.8497 8.17508 12.1854 7.90439 11.3305 7.88308C11.3069 7.67915 11.1339 7.52075 10.9236 7.52075H2.72336C2.49702 7.52075 2.31354 7.70427 2.31354 7.93058V12.6845C2.31354 13.629 2.84057 14.4748 3.68895 14.892C3.6478 14.9902 3.62694 15.094 3.62694 15.2009C3.62694 15.6415 3.98541 16 4.42605 16H9.22095C9.66159 16 10.0201 15.6415 10.0201 15.2009C10.0201 15.094 9.9992 14.9901 9.95802 14.892C10.6838 14.5351 11.1741 13.8644 11.3007 13.0867C12.002 12.9314 12.5963 12.5292 13.0432 11.9005C13.4582 11.3167 13.596 10.743 13.6104 10.6794L13.6133 10.6658C13.7809 9.83744 13.6603 9.16619 13.255 8.67072ZM12.4102 10.412C12.3997 10.453 12.2989 10.8255 12.0411 11.1882C11.8416 11.4688 11.6074 11.6683 11.3334 11.7893V9.11259C11.6421 9.1239 12.09 9.18828 12.3034 9.44909C12.4627 9.6438 12.4986 9.96785 12.4102 10.412Z" fill="black"/>
<path d="M5.01227 2.91995C5.6779 2.99724 6.35645 3.00765 6.93246 3.00765C7.11975 3.00765 7.30708 3.00651 7.49428 3.00532C7.78534 3.00351 8.07603 3.00171 8.36618 3.00429L8.40975 3.00446C8.48368 3.00446 8.57003 3.0031 8.65999 3.00167C8.75343 3.00015 8.85088 2.9986 8.94231 2.99847C8.76318 3.03368 8.54536 3.07257 8.35094 3.10724C7.95931 3.17716 7.55436 3.24945 7.26314 3.31838L7.20839 3.33129C6.64287 3.46461 5.78831 3.66608 5.51246 4.27733C5.4039 4.51277 5.41181 4.78166 5.53414 5.01497C5.66319 5.26115 5.90167 5.43635 6.17211 5.48364C6.26666 5.50016 6.36829 5.51594 6.47878 5.51594C6.65865 5.51594 6.83906 5.49967 7.01139 5.46573C7.90292 5.29053 7.91058 5.52184 7.91095 5.54598C7.91341 5.69753 7.61858 5.95978 7.49268 6.07178C7.46568 6.0958 7.44293 6.11604 7.42654 6.13161C7.39371 6.16276 7.35507 6.19723 7.31331 6.23448C7.05807 6.46214 6.70853 6.77393 6.7509 7.11495C6.75603 7.15609 6.79103 7.18679 6.83221 7.18679C6.83299 7.18679 6.83373 7.18679 6.83447 7.18675C6.87668 7.18564 6.9111 7.15261 6.91401 7.11052C6.92377 6.97024 7.06073 6.84733 7.18819 6.74324C7.30925 6.64484 7.4406 6.55312 7.5676 6.46447C7.62059 6.42755 7.67354 6.39054 7.72604 6.35296L7.7301 6.35009C7.96263 6.18362 8.3518 5.90519 8.40458 5.57147C8.42581 5.43758 8.39163 5.30885 8.30307 5.18882C8.05685 4.8551 7.6133 4.82719 7.217 4.82719L7.18519 4.82723C7.11495 4.82739 7.0443 4.82911 6.97348 4.83079C6.9002 4.8326 6.8268 4.8344 6.75349 4.8344C6.62714 4.8344 6.52521 4.82895 6.43276 4.81682C6.2476 4.79252 6.18486 4.69391 6.22817 4.62014C6.35698 4.40085 7.00598 4.207 8.17676 4.05512C8.24045 4.04684 8.29037 4.04037 8.32258 4.03549C8.39438 4.02447 8.46643 4.01381 8.5386 4.00307C8.95326 3.94152 9.38209 3.87779 9.79184 3.75636C10.5224 3.53977 10.6623 3.17187 10.6463 2.89274C10.6462 2.89089 10.6462 2.88901 10.646 2.88708L10.6463 2.88704L10.6454 2.87835C10.645 2.87331 10.6445 2.86803 10.6439 2.86241C10.6439 2.86196 10.6438 2.86155 10.6437 2.86106C10.6437 2.86098 10.6437 2.8609 10.6437 2.86081C10.6437 2.86069 10.6437 2.86057 10.6437 2.86049C10.6105 2.56959 10.4086 2.33198 10.0896 2.20862C9.62746 2.02981 9.08534 2.02781 8.607 2.02604L8.48196 2.02547C8.07279 2.02272 7.65637 2.03174 7.25409 2.04035C6.90197 2.04789 6.53784 2.05563 6.18027 2.05563C5.82302 2.05563 5.50848 2.04781 5.21874 2.03162C4.99534 2.01916 4.73113 1.99986 4.46515 1.95092C4.26483 1.91404 4.01558 1.8681 3.8571 1.73405C3.71395 1.61294 3.86288 1.34578 3.9616 1.22148C4.26078 0.844851 4.78383 0.68879 5.25603 0.585802C5.6893 0.491296 6.16371 0.441052 6.74914 0.427569C7.12524 0.418963 7.49191 0.428266 7.8403 0.45515C7.84243 0.455314 7.84456 0.455396 7.84669 0.455396C7.84694 0.455396 7.84722 0.455519 7.84747 0.455396C7.89271 0.455396 7.92943 0.418676 7.92943 0.373431C7.92943 0.333801 7.90132 0.300769 7.86394 0.293106C7.19425 0.101308 6.48235 0 5.80466 0C5.59549 0 5.38693 0.00954889 5.18485 0.0284417C4.40647 0.101144 3.40838 0.379415 3.07389 1.29234C2.96053 1.60167 2.97672 1.87806 3.12196 2.11391C3.44363 2.63619 4.32745 2.84053 5.01227 2.91995Z" fill="black"/>
</svg>
