<svg width="32" height="29" viewBox="0 0 32 29" fill="none" xmlns="http://www.w3.org/2000/svg">
<path d="M32 26.2093V15.2893C32.0001 14.5296 31.8223 13.7778 31.4776 13.0801C31.1329 12.3824 30.6284 11.7534 29.9952 11.2316L18.1984 1.50885C17.6043 1.01898 16.8176 0.746033 16 0.746033C15.1824 0.746033 14.3957 1.01898 13.8016 1.50885L2.0048 11.2316C1.37156 11.7534 0.867124 12.3824 0.522397 13.0801C0.177669 13.7778 -9.25718e-05 14.5296 3.61656e-08 15.2893V26.2093C3.61656e-08 26.9495 0.337142 27.6593 0.937258 28.1826C1.53737 28.706 2.35131 29 3.2 29H28.8C29.6487 29 30.4626 28.706 31.0627 28.1826C31.6629 27.6593 32 26.9495 32 26.2093Z" fill="#D27842"/>
</svg>
