<svg width="16" height="16" viewBox="0 0 16 16" fill="none" xmlns="http://www.w3.org/2000/svg">
<g clip-path="url(#clip0_1_2128)">
<path d="M2.03545 15.3061H4.21418C4.24446 15.4959 4.40177 15.6444 4.60045 15.6444H9.55392C9.75333 15.6444 9.9099 15.4967 9.94018 15.3061H12.1189C12.4874 15.3061 12.7858 15.0078 12.7858 14.6392H1.36928C1.36928 15.0078 1.66765 15.3061 2.03545 15.3061Z" fill="white"/>
<path d="M15.4099 8.45162C14.8545 8.00184 14.0724 7.99446 13.5576 8.05133C13.5724 7.69239 13.5805 7.32533 13.5805 6.9435H0C0 10.6141 0.555392 13.2626 4.07016 14.2507H9.51034C10.9025 13.86 11.8257 13.2035 12.438 12.3305C13.7718 12.3046 15.9173 11.7795 15.9978 9.93759C16.0325 9.13109 15.6972 8.68353 15.4099 8.45162ZM12.997 11.2773C13.2526 10.6207 13.404 9.8822 13.4874 9.07053C13.8479 9.01144 14.469 8.97378 14.7829 9.22932C14.8405 9.27658 15.0199 9.42282 14.9993 9.89475C14.9572 10.849 13.7725 11.1695 12.997 11.2773Z" fill="white"/>
<path d="M5.5325 6.42799C5.5325 6.42799 8.11743 6.23818 6.93279 4.05871C5.98154 2.30908 6.19867 1.2825 7.41581 0.354874C7.41581 0.354874 3.4291 1.37038 5.75406 4.51292C6.60709 5.8822 5.5325 6.42799 5.5325 6.42799Z" fill="white"/>
<path d="M7.27474 6.25369C7.27474 6.25369 9.34564 5.8172 8.21861 4.15177C7.80945 3.42946 8.37371 3.17171 8.37371 3.17171C8.37371 3.17171 7.04062 3.2138 7.6034 4.3593C8.05391 5.28027 7.92024 5.80317 7.27474 6.25369Z" fill="white"/>
</g>
<defs>
<clipPath id="clip0_1_2128">
<rect width="16" height="16.0007" fill="white" transform="translate(0 -0.000366211)"/>
</clipPath>
</defs>
</svg>
