<svg width="12" height="16" viewBox="0 0 12 16" fill="none" xmlns="http://www.w3.org/2000/svg">
<path d="M5.76011 16C4.23301 15.9981 2.76898 15.3907 1.68915 14.3108C0.609328 13.231 0.00186305 11.767 0 10.2399C0.0344462 9.11713 0.364253 8.0233 0.956179 7.06863L5.21802 0.279377C5.27958 0.192981 5.36089 0.12255 5.45519 0.0739524C5.54948 0.0253552 5.65403 0 5.76011 0C5.86619 0 5.97074 0.0253552 6.06503 0.0739524C6.15933 0.12255 6.24064 0.192981 6.3022 0.279377L10.5455 7.03535C11.1473 7.99886 11.4836 9.10444 11.5202 10.2399C11.5184 11.767 10.9109 13.231 9.83107 14.3108C8.75124 15.3907 7.28722 15.9981 5.76011 16ZM5.76011 1.82245L2.05956 7.71568C1.58275 8.47412 1.3139 9.34467 1.28002 10.2399C1.28002 11.4281 1.75203 12.5676 2.59221 13.4078C3.43239 14.248 4.57192 14.72 5.76011 14.72C6.9483 14.72 8.08783 14.248 8.92801 13.4078C9.76819 12.5676 10.2402 11.4281 10.2402 10.2399C10.2037 9.33215 9.92815 8.45015 9.44146 7.68304L5.76011 1.82245Z" fill="#D27842"/>
</svg>
