<svg width="13" height="16" viewBox="0 0 13 16" fill="none" xmlns="http://www.w3.org/2000/svg">
<path d="M12.055 7.24085C11.7078 6.45946 11.2031 5.75812 10.5725 5.18072L10.0521 4.70324C10.0344 4.68747 10.0132 4.67628 9.99016 4.67065C9.96716 4.66502 9.94312 4.66512 9.92017 4.67095C9.89722 4.67678 9.87605 4.68815 9.85851 4.70407C9.84098 4.71999 9.82763 4.73997 9.81962 4.76225L9.58714 5.42929C9.44228 5.84776 9.17583 6.27516 8.79849 6.69542C8.77345 6.72224 8.74484 6.72939 8.72517 6.73118C8.7055 6.73297 8.6751 6.72939 8.64827 6.70436C8.62324 6.6829 8.61072 6.65071 8.61251 6.61852C8.67867 5.54196 8.35678 4.32769 7.65218 3.00613C7.06919 1.90811 6.25909 1.05151 5.24691 0.45421L4.50833 0.0196502C4.41176 -0.0375757 4.28837 0.0375333 4.29374 0.150197L4.33308 1.00859C4.3599 1.59515 4.29195 2.11376 4.131 2.54475C3.93428 3.0723 3.65173 3.56229 3.29049 4.00222C3.0391 4.30795 2.75416 4.58449 2.44104 4.82663C1.68692 5.40634 1.07373 6.14915 0.647369 6.99943C0.222062 7.85713 0.000518898 8.80144 0 9.75879C0 10.6029 0.166313 11.4201 0.495362 12.1909C0.813085 12.933 1.27159 13.6065 1.84554 14.1741C2.42495 14.7464 3.09736 15.197 3.84666 15.51C4.62278 15.8355 5.44541 16 6.29486 16C7.1443 16 7.96693 15.8355 8.74305 15.5118C9.49051 15.2007 10.1702 14.7469 10.7442 14.1759C11.3236 13.6037 11.7778 12.9348 12.0943 12.1927C12.4229 11.424 12.5914 10.5965 12.5897 9.76058C12.5897 8.88789 12.4109 8.04023 12.055 7.24085ZM9.88936 13.3086C8.92904 14.26 7.65397 14.7822 6.29486 14.7822C4.93574 14.7822 3.66067 14.26 2.70035 13.3086C1.7436 12.359 1.21605 11.1 1.21605 9.76058C1.21605 8.98267 1.39131 8.23694 1.73645 7.54308C2.07265 6.86531 2.57338 6.25907 3.18141 5.79232C3.56918 5.49581 3.92089 5.1549 4.22936 4.77656C4.67643 4.23112 5.02694 3.6231 5.27015 2.97036C5.36992 2.70111 5.44241 2.42253 5.48654 2.1388C5.91752 2.5358 6.27876 3.01507 6.58099 3.5766C7.17828 4.69608 7.45368 5.69217 7.40003 6.53983C7.38721 6.73947 7.41982 6.93942 7.4954 7.12465C7.57097 7.30987 7.68756 7.47556 7.83638 7.60924C7.96535 7.72574 8.11619 7.81546 8.28012 7.87317C8.44406 7.93089 8.61783 7.95546 8.79134 7.94545C9.14363 7.92756 9.46732 7.77198 9.70338 7.5091C9.94122 7.24264 10.1469 6.97082 10.3186 6.69363C10.5689 7.01374 10.7782 7.36246 10.9445 7.738C11.2288 8.37822 11.3737 9.05956 11.3737 9.76058C11.3737 11.1 10.8461 12.3608 9.88936 13.3086Z" fill="#D27842"/>
</svg>
