<svg width="24" height="24" viewBox="0 0 24 24" fill="none" xmlns="http://www.w3.org/2000/svg">
<path fill-rule="evenodd" clip-rule="evenodd" d="M19.5 13.2V11.25H18V13.5C17.9946 13.6995 18.0769 13.8913 18.225 14.025L20.25 16.05V17.25H3.75V16.05L5.775 14.025C5.92314 13.8913 6.00535 13.6995 6 13.5V9.75C6 6.43629 8.68629 3.75 12 3.75C13.055 3.7502 14.0908 4.03245 15 4.5675V2.85C14.287 2.53061 13.5273 2.32802 12.75 2.25V0.75H11.25V2.25C7.42833 2.68567 4.53209 5.90371 4.5 9.75V13.2L2.475 15.225C2.32685 15.3587 2.24464 15.5505 2.25 15.75V18C2.23659 18.2027 2.31129 18.4014 2.45495 18.545C2.59861 18.6887 2.79727 18.7634 3 18.75H8.25C8.25 20.8211 9.92893 22.5 12 22.5C14.0711 22.5 15.75 20.8211 15.75 18.75H21C21.2027 18.7634 21.4014 18.6887 21.545 18.545C21.6887 18.4014 21.7634 18.2027 21.75 18V15.75C21.7554 15.5505 21.6731 15.3587 21.525 15.225L19.5 13.2ZM12 21C10.7574 21 9.75 19.9926 9.75 18.75H14.25C14.25 19.9926 13.2426 21 12 21ZM19.5 9C21.1569 9 22.5 7.65685 22.5 6C22.5 4.34315 21.1569 3 19.5 3C17.8431 3 16.5 4.34315 16.5 6C16.5 7.65685 17.8431 9 19.5 9Z" fill="#000103"/>
</svg>
