<svg width="17" height="16" viewBox="0 0 17 16" fill="none" xmlns="http://www.w3.org/2000/svg">
<g clip-path="url(#clip0_1_2099)">
<path d="M8.5 0C6.90935 0.00211004 5.38445 0.634929 4.25969 1.75969C3.13493 2.88445 2.50211 4.40935 2.5 6C2.5 10.3075 8.09 15.7025 8.3275 15.93C8.3737 15.9749 8.43558 16 8.5 16C8.56442 16 8.6263 15.9749 8.6725 15.93C8.91 15.7025 14.5 10.3075 14.5 6C14.4979 4.40935 13.8651 2.88445 12.7403 1.75969C11.6155 0.634929 10.0907 0.00211004 8.5 0ZM8.5 8.75C7.9561 8.75 7.42442 8.58871 6.97218 8.28654C6.51995 7.98437 6.16747 7.55488 5.95933 7.05238C5.75119 6.54988 5.69673 5.99695 5.80284 5.4635C5.90895 4.93005 6.17086 4.44005 6.55546 4.05546C6.94005 3.67086 7.43005 3.40895 7.9635 3.30284C8.49695 3.19673 9.04988 3.25119 9.55238 3.45933C10.0549 3.66747 10.4844 4.01995 10.7865 4.47218C11.0887 4.92442 11.25 5.4561 11.25 6C11.2496 6.72921 10.9597 7.42843 10.4441 7.94406C9.92843 8.45969 9.22921 8.74956 8.5 8.75Z" fill="#D27842"/>
</g>
<defs>
<clipPath id="clip0_1_2099">
<rect width="16" height="16" fill="white" transform="translate(0.5)"/>
</clipPath>
</defs>
</svg>
