<svg width="16" height="16" viewBox="0 0 16 16" fill="none" xmlns="http://www.w3.org/2000/svg">
<path fill-rule="evenodd" clip-rule="evenodd" d="M15 3.5H12.45C12.2134 2.33484 11.1889 1.4975 10 1.4975C8.81106 1.4975 7.7866 2.33484 7.55 3.5H1V4.5H7.55C7.7866 5.66517 8.81106 6.50251 10 6.50251C11.1889 6.50251 12.2134 5.66517 12.45 4.5H15V3.5ZM10 5.5C9.17157 5.5 8.5 4.82843 8.5 4C8.5 3.17158 9.17157 2.5 10 2.5C10.8284 2.5 11.5 3.17158 11.5 4C11.5 4.82843 10.8284 5.5 10 5.5ZM1 12.5H3.55C3.7866 13.6652 4.81106 14.5025 6 14.5025C7.18894 14.5025 8.2134 13.6652 8.45 12.5H15V11.5H8.45C8.2134 10.3348 7.18894 9.4975 6 9.4975C4.81106 9.4975 3.7866 10.3348 3.55 11.5H1V12.5ZM4.5 12C4.5 11.1716 5.17157 10.5 6 10.5C6.82843 10.5 7.5 11.1716 7.5 12C7.5 12.8284 6.82843 13.5 6 13.5C5.17157 13.5 4.5 12.8284 4.5 12Z" fill="#482615"/>
</svg>
